<svg width="1514" height="8338" viewBox="0 0 1514 8338" fill="none" xmlns="http://www.w3.org/2000/svg">
<path d="M719.493 113.138C719.493 113.138 70.6517 88.6385 164.639 691.68C258.627 1294.73 1396.54 45.9098 1083 1306.5C769.455 2567.09 -125.376 2258.11 201 1456.5C496.463 819.796 2322.49 2753.64 403.423 2869.64" stroke="#FF5F0A" stroke-width="150" stroke-linecap="round"/>
<g clip-path="url(#clip0_53_15)">
<path d="M474.423 2869.5C474.423 2869.5 135.151 2812 207 3273C300.988 3876.05 1467.54 2742.91 1154 4003.5C840.455 5264.09 -119.376 4973.61 207 4172C502.463 3535.3 2393.49 5450.64 474.423 5566.64" stroke="#FF5F0A" stroke-width="150" stroke-linecap="round"/>
</g>
<path d="M589.187 5565.29C589.187 5565.29 249.915 5507.79 321.764 5968.79C415.752 6571.84 1582.31 5438.7 1268.76 6699.29C955.22 7959.88 -4.61179 7669.4 321.764 6867.79C617.227 6231.09 2508.26 8146.43 589.187 8262.43" stroke="#FF5F0A" stroke-width="150" stroke-linecap="round"/>
<defs>
<clipPath id="clip0_53_15">
<rect width="1377" height="2982" fill="white" transform="translate(71 2697)"/>
</clipPath>
</defs>
</svg>
